<svg width="200" height="140" xmlns="http://www.w3.org/2000/svg">
 <title>Try me!</title>
 <g id="Layer_1">
  <title>Layer 1</title>
  <text xml:space="preserve" text-anchor="start" font-family="Noto Sans JP" font-size="24" id="svg_1" y="69" x="17.66498" stroke-width="0" stroke="#000" fill="#000000"/>
  <text fill="#000000" stroke="#000" stroke-width="0" x="212.66498" y="84" id="svg_2" font-size="24" font-family="Noto Sans JP" text-anchor="start" xml:space="preserve"/>
  <text transform="matrix(1.68798, 0, 0, 2.26244, -13.529, -146.547)" xml:space="preserve" text-anchor="start" font-family="'Caveat'" font-size="24" id="svg_8" y="113.86201" x="18.48013" stroke="#000" fill="#000000">Try me!</text>
  <path d="m5.66498,62c0,-1 1,-1 1,-1c1,-1 1,-2 1,-2c1,-1 2,-2 3,-3c1,-1 2,-2 3,-3c0,0 1,-1 2,-2c0,0 1,-1 2,-2c0,0 1.29289,-0.29289 2,-1c0.70711,-0.70711 0,-1 0,-1c1,0 1.29289,-0.29289 2,-1c0.70711,-0.70711 0,-1 0,-1c1,0 1.29289,-1.29289 2,-2c0.70711,-0.70711 1.29289,-0.29289 2,-1c0.70711,-0.70711 1.29289,-0.29289 2,-1c0.70711,-0.70711 0,-2 1,-2c1,0 0.61732,-0.07612 1,-1c0.5412,-1.30656 2,-1 2,-1c1,0 1,-1 2,-1c0,0 1,-1 2,-1c0,0 1.29289,-0.29289 2,-1c0.70711,-0.70711 1.07612,-0.61732 2,-1c1.30656,-0.54119 1.69344,-1.4588 3,-2c0.92388,-0.38268 1.07612,0.38268 2,0c1.30656,-0.5412 3,-2 3,-2c2,0 2,0 4,-1c0,0 2,-1 3,-1c1,0 3,-1 5,-1c1,0 2,-1 3,-1c1,0 2,0 3,0c1,0 2.07612,0.38268 3,0c1.30656,-0.5412 2.29289,-1.29289 3,-2c1.41422,-1.41421 2,0 4,0c0,0 2.07612,0.38268 3,0c1.30656,-0.5412 3,-1 4,-1c2,0 3,-1 5,-1c2,0 3,0 4,0c2,0 2,-1 4,-1c0,0 1,0 2,0c1,0 2,0 2,0c1,0 2,0 2,0c1,0 2,0 2,0c1,1 2,1 4,1c0,0 2,1 2,1c2,0 3,1 4,1c1,0 1.69344,0.4588 3,1c0.92388,0.38268 2,1 3,1c2,0 2.186,-0.30745 4,1c1.14727,0.8269 2.15224,0.23463 4,1c1.30656,0.5412 2,2 3,2c1,0 1.69344,0.4588 3,1c0.92387,0.38268 2,1 3,1c1,0 2.29289,1.29289 3,2c0.70711,0.70711 2.07613,-0.38268 3,0c1.30656,0.54119 2,1 3,2c0,0 1,0 2,1c0,0 1.29289,0.29289 2,1c0.70711,0.70711 1,1 2,2c0,0 1.47427,1.14935 2,2c1.17557,1.90211 2.29869,0.94854 4,2c1.90211,1.17557 1.61731,2.07612 2,3c0.5412,1.30656 1.61731,1.07612 2,2c0.5412,1.30656 2,2 3,3c1,1 1.14935,1.47427 2,2c1.90211,1.17557 0.47427,2.14935 1,3c1.17557,1.90211 1.61731,1.07612 2,2c0.5412,1.30656 1.61731,2.07612 2,3c0.5412,1.30656 2,2 2,3c0,2 2,3 2,5c0,0 1.29289,1.29289 2,2c0.70711,0.70711 0.29289,1.29289 1,2c0.70711,0.70711 1,2 1,2l0,0l1,0l0,1" id="svg_11" stroke-width="5" stroke="#000" fill="none"/>
  <path d="m112.66498,58c1,0 1,0 2,0c1,0 1,0 2,0c1,0 1,0 2,0c1,0 3,1 3,1c2,0 2,0 3,0c1,0 1.07612,-0.38268 2,0c1.30656,0.54119 2,1 3,1c0,0 0.69344,0.45881 2,1c0.92387,0.38268 2,0 2,0c1,0 2,0 2,0c1,0 2,1 2,1c1,0 2,1 3,1c1,0 0.69344,0.45881 2,1c0.92387,0.38268 1,1 3,1c0,0 1,0 1,0c1,0 2,0 3,1c0,0 1,1 2,1c0,0 1,0 2,0c0,0 0.07613,0.61732 1,1c1.30656,0.5412 2,1 3,1c0,0 2,1 2,1c1,1 2,1 2,1c1,0 2.07613,-0.38268 3,0c1.30656,0.5412 0.69344,1.4588 2,2c0.92387,0.38268 1,0 2,0c1,0 1.29289,-0.70711 2,0c0.70711,0.70711 1,1 1,1c1,0 2,0 2,0c0,1 1,1 2,1c0,0 0,0 1,0c1,0 1,1 1,1c1,0 2,0 2,1c0,0 1,0 1,-1c0,-1 0,-1 0,-2c0,-1 -1,-1 -1,-2c0,-1 0,-1 0,-3c0,0 0,-2 0,-2c-1,-1 -1.48625,-1.82375 -2,-4c-0.22975,-0.97325 0,-2 0,-4c0,-2 0.76537,-2.15224 0,-4c-0.5412,-1.30656 -0.61731,-2.07612 -1,-3c-0.5412,-1.30656 -1,-1 -1,-2c0,-1 0.38269,-2.07612 0,-3c-0.5412,-1.30656 -0.23463,-2.15224 -1,-4c-0.5412,-1.30656 -1,-2 -1,-3c0,-2 -1.4588,-2.69344 -2,-4c-0.38269,-0.92388 0.22975,-2.02675 0,-3c-0.51375,-2.17625 -2,-3 -2,-5c0,-1 -1.4588,-2.69344 -2,-4c-0.38269,-0.92388 -0.29289,-2.29289 -1,-3c-0.70711,-0.70711 -1,-2 -1,-2c-1,0 -2,-1 -2,-2c0,0 -0.29289,0.70711 -1,0c-0.70711,-0.70711 -0.61731,-2.07612 -1,-3c-0.5412,-1.30656 -1.61731,-1.07612 -2,-2c-0.5412,-1.30656 -1.47427,-1.14935 -2,-2c-1.17557,-1.90211 -2.07613,-2.61732 -3,-3c-1.30656,-0.5412 -1,-2 -1,-2l-1,0" id="svg_12" stroke-width="5" stroke="#000" fill="none"/>
 </g>

</svg>